#!OML:ASF E:\inclinewalkrobotboard\Project 1\Capture day 1\Session 1\subject1.ASF
:FULLY-SPECIFIED
:DEGREES
191
root 7.25831 18.7316 22.7706 -170.365 1.33915 -183.635
lowerback 7.70696 -1.25751 -9.76787
upperback 5.76412 -1.70038 1.33031
thorax 2.11355 -0.968472 6.99677
lowerneck -6.69883 -0.92576 -1.64782
upperneck 25.2773 0.14234 2.65762
head 8.99341 0.814739 1.30231
rclavicle -7.60351e-015 3.52843e-014
rhumerus -74.501 -46.9228 -23.5679
rradius 13.8361
rwrist 46.8039
rhand -10.8016 -37.0452
rfingers 7.12502
rthumb 15.2116 -66.466
lclavicle -7.60351e-015 3.52843e-014
lhumerus -15.8059 -11.7032 90.2084
lradius 43.0425
lwrist -15.7276
lhand -30.8031 -20.3563
lfingers 7.12502
lthumb -4.09297 9.58411
rfemur -66.0863 -0.159111 14.4911
rtibia 46.8042
rfoot -7.92754 -3.88967
rtoes -34.4044
lfemur -4.73506 -10.4982 -28.1474
ltibia 16.4839
lfoot -31.7932 -0.35444
ltoes -64.012
192
root 7.2959 18.7279 22.5117 -170.526 0.577026 -183.651
lowerback 7.92387 -1.41011 -9.45079
upperback 5.85963 -1.88302 1.46436
thorax 2.11984 -1.04814 6.97287
lowerneck -6.74168 -0.950169 -1.61419
upperneck 25.0496 0.0817252 2.59129
head 8.92359 0.769812 1.26307
rclavicle -2.17669e-014 -7.95139e-016
rhumerus -77.4371 -47.5484 -19.7989
rradius 13.5091
rwrist 49.0704
rhand -10.8 -37.2771
rfingers 7.12502
rthumb 15.2132 -66.6978
lclavicle -2.17669e-014 -7.95139e-016
lhumerus -15.8344 -11.8897 90.5119
lradius 43.4523
lwrist -15.4903
lhand -30.4134 -19.8983
lfingers 7.12502
lthumb -3.71664 10.049
rfemur -65.6967 -0.491546 14.3235
rtibia 46.9309
rfoot -4.64639 -3.0166
rtoes -31.091
lfemur -3.65681 -10.6991 -28.1355
ltibia 16.7891
lfoot -31.5758 -0.904543
ltoes -64.1339
193
root 7.33934 18.728 22.2468 -170.462 -0.0382116 -183.631
lowerback 7.97766 -0.726373 -8.988
upperback 5.77417 -2.09391 1.61395
thorax 1.94534 -1.60333 6.87155
lowerneck -6.59405 -1.09012 -1.45057
upperneck 24.9002 -0.119835 2.48261
head 8.84851 0.678109 1.17605
rclavicle 7.65321e-015 1.64991e-014
rhumerus -80.0395 -47.7328 -16.8187
rradius 13.3054
rwrist 50.7923
rhand -11.0123 -37.1378
rfingers 7.12502
rthumb 15.0086 -66.5739
lclavicle 7.65321e-015 1.64991e-014
lhumerus -16.2019 -12.2462 90.8849
lradius 43.7507
lwrist -15.2556
lhand -30.1174 -19.9263
lfingers 7.12502
lthumb -3.43087 10.0258
rfemur -65.4255 -0.902429 14.8895
rtibia 47.9818
rfoot -3.85525 -2.49491
rtoes -26.1118
lfemur -2.83823 -10.8043 -27.9783
ltibia 17.1183
lfoot -31.3556 -1.37942
ltoes -64.3148
194
root 7.39288 18.7364 21.9763 -170.275 -0.571882 -183.651
lowerback 7.96974 -0.923981 -8.92395
upperback 5.76728 -2.353 1.84044
thorax 1.99963 -1.73778 7.08916
lowerneck -6.71175 -1.04932 -1.79057
upperneck 24.7302 -0.0621264 2.53972
head 8.81108 0.66508 1.25511
rclavicle -7.85199e-015 9.34288e-015
rhumerus -81.185 -47.9711 -14.9879
rradius 13.0371
rwrist 52.3852
rhand -11.3057 -36.7055
rfingers 7.12502
rthumb 14.726 -66.1624
lclavicle -7.85199e-015 9.34288e-015
lhumerus -16.4245 -11.7287 91.2627
lradius 43.7761
lwrist -15.2045
lhand -30.2473 -20.194
lfingers 7.12502
lthumb -3.55628 9.75612
rfemur -65.1043 -1.05387 15.3598
rtibia 50.1056
rfoot -7.77038 -4.64931
rtoes -23.7397
lfemur -2.09895 -10.9329 -27.7954
ltibia 17.3824
lfoot -30.8883 -1.72056
ltoes -64.4253
195
root 7.44674 18.7508 21.7111 -169.781 -0.791013 -183.637
lowerback 7.76532 -0.988514 -8.76732
upperback 5.68191 -2.39411 1.94416
thorax 2.02792 -1.74519 7.1064
lowerneck -6.7978 -1.06776 -1.90597
upperneck 24.4329 -0.155811 2.68164
head 8.72668 0.605932 1.30772
rclavicle 1.6201e-014 3.37934e-014
rhumerus -81.5219 -48.122 -14.6876
rradius 13.0225
rwrist 52.7558
rhand -11.2764 -36.4305
rfingers 7.12502
rthumb 14.7542 -65.8854
lclavicle 1.6201e-014 3.37934e-014
lhumerus -16.7667 -11.4015 91.56
lradius 43.8268
lwrist -15.1852
lhand -30.3769 -20.4955
lfingers 7.12502
lthumb -3.68139 9.45242
rfemur -65.1293 -0.837117 15.8326
rtibia 52.0389
rfoot -11.0447 -5.21656
rtoes -21.0703
lfemur -1.69862 -11.0299 -27.5792
ltibia 17.6027
lfoot -30.1325 -1.80005
ltoes -64.561
196
root 7.50165 18.7777 21.4471 -169.187 -1.0179 -183.574
lowerback 7.59685 -1.07817 -8.49841
upperback 5.5313 -2.45988 2.02452
thorax 1.96462 -1.75084 7.03853
lowerneck -6.25024 -1.10149 -2.35685
upperneck 23.5587 -0.342134 3.21585
head 8.33197 0.497072 1.52853
rclavicle 7.55382e-015 2.00773e-014
rhumerus -81.1132 -48.1466 -15.4556
rradius 13.1044
rwrist 52.3699
rhand -11.1231 -36.0056
rfingers 7.12502
rthumb 14.9019 -65.4496
lclavicle 7.55382e-015 2.00773e-014
lhumerus -17.4531 -10.9988 91.7803
lradius 44.0755
lwrist -15.2223
lhand -30.3774 -20.6132
lfingers 7.12502
lthumb -3.68195 9.33475
rfemur -65.006 -0.408664 16.1403
rtibia 53.0974
rfoot -13.6404 -5.95862
rtoes -19.0969
lfemur -1.41757 -11.1844 -27.2657
ltibia 17.7984
lfoot -29.0978 -1.90116
ltoes -64.8271
197
root 7.55804 18.8172 21.1864 -168.52 -1.06162 -183.362
lowerback 7.45617 -1.14313 -8.09115
upperback 5.36695 -2.48881 2.11623
thorax 1.85736 -1.73229 6.90336
lowerneck -4.891 -1.14658 -3.5022
upperneck 21.864 -0.658322 4.51772
head 7.53211 0.311752 2.09181
rclavicle 1.98785e-016 -7.95139e-015
rhumerus -80.0246 -48.1434 -17.022
rradius 13.1785
rwrist 51.6653
rhand -11.013 -35.5217
rfingers 7.12502
rthumb 15.0079 -64.9578
lclavicle 1.98785e-016 -7.95139e-015
lhumerus -18.2011 -10.6018 91.8765
lradius 44.24
lwrist -15.1597
lhand -30.4139 -20.4719
lfingers 7.12502
lthumb -3.71721 9.47545
rfemur -64.8168 0.523149 16.3304
rtibia 53.5415
rfoot -16.0881 -6.75607
rtoes -14.1116
lfemur -1.25381 -11.3023 -26.7716
ltibia 17.9585
lfoot -27.8355 -1.87172
ltoes -65.1159
198
root 7.61535 18.8687 20.9305 -167.838 -0.928432 -183.095
lowerback 7.39631 -1.14447 -7.66572
upperback 5.2384 -2.44689 2.22271
thorax 1.73035 -1.68306 6.77269
lowerneck -6.08221 -0.999369 -2.44632
upperneck 22.5395 -0.321474 3.22867
head 7.95667 0.447962 1.52766
rclavicle -1.15295e-014 -3.26007e-014
rhumerus -78.0885 -48.074 -19.6271
rradius 13.3482
rwrist 50.3836
rhand -10.814 -35.4994
rfingers 7.12502
rthumb 15.1997 -64.9211
lclavicle -1.15295e-014 -3.26007e-014
lhumerus -18.8402 -10.2606 91.9087
lradius 44.1014
lwrist -14.9626
lhand -30.364 -20.5265
lfingers 7.12502
lthumb -3.66893 9.42165
rfemur -64.6379 1.74377 16.4107
rtibia 53.9966
rfoot -17.9033 -7.43294
rtoes -15.2306
lfemur -1.15135 -11.2723 -26.2018
ltibia 18.0728
lfoot -26.2949 -1.72922
ltoes -65.3868
199
root 7.67254 18.9318 20.674 -167.233 -0.757666 -182.836
lowerback 7.32721 -1.13535 -7.27839
upperback 5.22851 -2.40855 2.3614
thorax 1.73801 -1.65524 6.69447
lowerneck -6.0443 -0.895843 -2.5087
upperneck 21.8714 -0.232862 3.11165
head 7.72439 0.438674 1.4932
rclavicle 8.15017e-015 -1.27222e-014
rhumerus -75.3307 -47.9137 -23.0827
rradius 13.5903
rwrist 48.4675
rhand -10.6236 -35.6255
rfingers 7.12502
rthumb 15.3831 -65.0332
lclavicle 8.15017e-015 -1.27222e-014
lhumerus -19.2226 -9.92159 91.918
lradius 43.5604
lwrist -14.5209
lhand -30.277 -20.5294
lfingers 7.12502
lthumb -3.58498 9.42018
rfemur -64.2666 2.80927 16.5127
rtibia 54.4298
rfoot -19.9617 -7.57815
rtoes -15.4202
lfemur -0.910817 -11.1178 -25.6285
ltibia 18.083
lfoot -24.3453 -1.56347
ltoes -65.621
200
root 7.72067 19.009 20.4191 -166.608 -0.829525 -182.819
lowerback 7.24175 -1.26047 -6.94848
upperback 5.22606 -2.55311 2.46369
thorax 1.79492 -1.72264 6.61718
lowerneck -4.8433 -0.864689 -3.58737
upperneck 20.1233 -0.382386 4.05306
head 6.94291 0.304623 1.93695
rclavicle -8.34896e-015 -3.18055e-015
rhumerus -72.3065 -47.6445 -26.6508
rradius 13.8388
rwrist 46.6532
rhand -10.5326 -35.5145
rfingers 7.12502
rthumb 15.4707 -64.9154
lclavicle -8.34896e-015 -3.18055e-015
lhumerus -19.314 -9.58262 91.8774
lradius 42.4762
lwrist -13.9915
lhand -30.3445 -20.5351
lfingers 7.12502
lthumb -3.65014 9.4134
rfemur -63.7399 3.12969 16.616
rtibia 54.6644
rfoot -21.9821 -7.46046
rtoes -15.6663
lfemur -0.765818 -11.019 -25.3356
ltibia 18.2472
lfoot -22.0287 -1.51121
ltoes -65.5895
201
root 7.74504 19.1014 20.1773 -165.942 -1.30209 -183.367
lowerback 7.38899 -1.53748 -6.67614
upperback 5.10133 -2.90533 2.38603
thorax 1.62052 -1.87331 6.40437
lowerneck -5.4197 -0.714336 -2.9068
upperneck 20.3079 -0.0598421 2.94161
head 7.09443 0.410851 1.48872
rclavicle -2.56432e-014 -1.98785e-015
rhumerus -69.5654 -47.3216 -29.8161
rradius 14.0689
rwrist 45.2927
rhand -10.5795 -35.3474
rfingers 7.12502
rthumb 15.4255 -64.7518
lclavicle -2.56432e-014 -1.98785e-015
lhumerus -19.4687 -9.17299 91.8294
lradius 40.9812
lwrist -14.0468
lhand -30.6287 -21.0931
lfingers 7.12502
lthumb -3.92458 8.85045
rfemur -63.1926 2.28112 16.4317
rtibia 54.767
rfoot -23.1355 -6.99544
rtoes -14.8543
lfemur -0.838345 -11.0951 -25.774
ltibia 18.5571
lfoot -19.3437 -1.70379
ltoes -65.392
